<svg width="12" height="12" viewBox="0 0 12 12" fill="none" xmlns="http://www.w3.org/2000/svg">
<path d="M10.1697 0.314031C10.5884 -0.104672 11.2673 -0.104672 11.686 0.314031C12.1047 0.732733 12.1047 1.41158 11.686 1.83029L1.83031 11.6859C1.41161 12.1046 0.73276 12.1046 0.314058 11.6859C-0.104644 11.2672 -0.104644 10.5884 0.314058 10.1697L10.1697 0.314031Z" fill="white"/>
<path d="M11.6859 10.1697C12.1046 10.5884 12.1046 11.2672 11.6859 11.6859C11.2672 12.1046 10.5884 12.1046 10.1697 11.6859L0.314027 1.83028C-0.104676 1.41158 -0.104676 0.732729 0.314027 0.314027C0.732729 -0.104676 1.41158 -0.104676 1.83028 0.314027L11.6859 10.1697Z" fill="white"/>
</svg>
