<svg width="12" height="15" viewBox="0 0 12 15" fill="none" xmlns="http://www.w3.org/2000/svg">
<path d="M0.504573 2.8789C0.464038 2.57533 0.683255 2.375 0.876438 2.375H11.1236C11.3167 2.375 11.536 2.57533 11.4954 2.87891L9.99324 14.1289C9.96128 14.3683 9.78164 14.5 9.62138 14.5H2.37862C2.21836 14.5 2.03872 14.3683 2.00676 14.1289L0.504573 2.8789Z" stroke="white"/>
<rect x="11.2576" width="0.9375" height="10.5153" rx="0.46875" transform="rotate(90 11.2576 0)" fill="white"/>
<rect x="6.43814" y="13.125" width="0.876274" height="9.375" rx="0.438137" transform="rotate(-180 6.43814 13.125)" fill="white"/>
<rect x="4.24747" y="13.125" width="0.876274" height="9.375" rx="0.438137" transform="rotate(-180 4.24747 13.125)" fill="white"/>
<rect x="8.62881" y="13.125" width="0.876274" height="9.375" rx="0.438137" transform="rotate(-180 8.62881 13.125)" fill="white"/>
</svg>
